PathFileType	4	(X/Y/Z)	S15T1V11.trc
DataRate	CameraRate	NumFrames	NumMarkers	Units	OrigDataRate	OrigDataStartFrame	OrigNumFrames
200	200	7	39	mm	200	38	99
Frame#	Time	LSHO			RSHO			LICST			RICST			LASIS			RASIS			LTROC			RTROC			SACR			LTH1			LTH2			LTH3			LTH4			RTH1			RTH2			RTH3			RTH4			LLEP			RLEP			LSK1			LSK2			LSK3			LSK4			RSK1			RSK2			RSK3			RSK4			LLME			RLME			LTOE			LHM5			LHEEL			RTOE			RHM5			RHEEL			RFT1			RFT2			LFT1			LFT2		
		X1	Y1	Z1	X2	Y2	Z2	X3	Y3	Z3	X4	Y4	Z4	X5	Y5	Z5	X6	Y6	Z6	X7	Y7	Z7	X8	Y8	Z8	X9	Y9	Z9	X10	Y10	Z10	X11	Y11	Z11	X12	Y12	Z12	X13	Y13	Z13	X14	Y14	Z14	X15	Y15	Z15	X16	Y16	Z16	X17	Y17	Z17	X18	Y18	Z18	X19	Y19	Z19	X20	Y20	Z20	X21	Y21	Z21	X22	Y22	Z22	X23	Y23	Z23	X24	Y24	Z24	X25	Y25	Z25	X26	Y26	Z26	X27	Y27	Z27	X28	Y28	Z28	X29	Y29	Z29	X30	Y30	Z30	X31	Y31	Z31	X32	Y32	Z32	X33	Y33	Z33	X34	Y34	Z34	X35	Y35	Z35	X36	Y36	Z36	X37	Y37	Z37	X38	Y38	Z38	X39	Y39	Z39

38	0.185000	293.178639	1375.469709	-415.693516	274.075197	1368.027682	-83.876433	318.861725	970.743006	-412.369580	311.927307	981.337263	-94.493136	361.544189	913.019111	-396.160519	368.495550	937.970648	-113.618285	223.406833	883.463499	-396.724389	262.487111	866.992347	-92.051679	204.469166	972.842301	-259.309897	318.700271	645.147002	-443.015504	235.480781	644.664258	-425.909585	313.427783	544.193348	-448.414990	237.651022	540.688211	-427.058370	423.267189	684.478204	-93.747969	348.986360	655.095148	-99.719985	461.197510	594.056835	-109.942826	388.060791	563.828858	-117.444113	245.419141	450.070252	-441.248040	455.552772	459.610563	-130.784242	161.012497	389.298749	-433.455811	140.152872	466.802000	-412.626927	67.180503	360.863694	-406.539410	51.064455	435.019963	-381.541941	487.483696	354.683735	-155.154988	414.739845	361.973590	-121.077472	476.134367	257.830588	-174.568467	397.398881	261.373478	-141.394330	-94.549628	332.143118	-353.401679	395.080062	89.422924	-187.837394	-75.863219	155.283104	-356.323676	-119.957467	213.582064	-393.917559	-118.299488	373.100285	-274.081870	575.350016	78.877365	-216.337779	516.510463	57.827357	-161.024182	343.678043	81.549059	-249.438789	359.591829	51.742800	-278.890625	342.391777	54.002729	-223.611393	-131.373992	348.038887	-246.663029	-150.408508	367.886477	-293.097119
39	0.190000	307.508279	1371.476081	-415.662440	292.669957	1364.062775	-82.979606	333.128580	966.789044	-412.300801	326.561043	978.282759	-94.194771	376.212965	909.345071	-395.936339	383.091074	934.829018	-113.173613	238.623064	878.778298	-395.642592	277.057747	864.196965	-91.549375	218.694456	969.379681	-259.036084	339.664045	642.318580	-443.117494	256.470172	639.816653	-426.517861	336.909910	541.387601	-448.777996	261.230244	535.973367	-427.886162	437.724618	681.551413	-93.385691	363.354629	652.229355	-99.097607	475.461391	590.959539	-109.363815	402.336654	560.871571	-116.767683	271.389990	446.541250	-441.640842	469.219490	456.307406	-130.454352	187.042615	386.256464	-434.085637	166.427098	463.883878	-413.264158	92.974389	358.216797	-407.507404	77.088142	432.468826	-382.488191	498.324866	350.551218	-155.425523	426.025123	359.953183	-120.756957	483.894435	254.151234	-175.251383	405.524288	259.943990	-141.269533	-69.056578	330.357848	-355.064808	397.039468	88.563921	-188.400559	-49.660590	153.546466	-358.997354	-93.671400	212.042475	-396.463285	-93.543729	370.871347	-275.400142	577.330983	75.103455	-217.448203	517.868146	55.695167	-161.863589	344.979642	81.656557	-249.845024	360.304339	51.283940	-279.198778	343.184352	54.226427	-223.812770	-106.710754	345.517048	-248.320959	-125.493418	365.727512	-294.730488
40	0.195000	321.725099	1367.711548	-415.620614	311.345118	1360.341809	-82.150947	347.274010	963.043531	-412.284161	341.102379	975.395361	-93.944209	390.783251	905.894616	-395.779569	397.590038	931.821807	-112.768819	253.757710	874.313274	-394.619981	291.495457	861.559058	-91.104130	232.843489	966.106040	-258.806066	360.686342	639.844232	-443.080495	277.581020	635.279258	-426.966724	360.521574	539.002678	-448.920410	284.996224	531.649176	-428.477282	451.869898	678.660862	-92.951610	377.387488	649.482275	-98.466873	489.322308	587.864036	-108.700972	416.186504	557.993268	-116.048127	297.578034	443.421433	-441.767996	482.376167	453.031753	-130.030891	213.395581	383.442929	-434.510720	192.853798	461.150856	-413.682080	119.125883	355.605712	-408.357080	103.302723	429.917784	-383.312487	508.654757	346.501044	-155.564244	436.822352	358.015130	-120.376013	491.164904	250.632655	-175.798434	413.185160	258.667724	-141.081450	-43.172470	328.244701	-356.763928	398.633305	87.926041	-188.856052	-22.680025	151.537118	-361.602736	-66.680262	210.123277	-399.002700	-68.561205	368.255121	-276.820994	578.914151	71.879619	-218.425980	518.914987	53.922637	-162.595333	345.926779	81.857622	-250.156323	360.740439	50.999007	-279.434901	343.711945	54.525442	-223.945405	-81.803380	342.600244	-250.082431	-100.315351	363.121873	-296.509229
41	0.200000	335.828695	1364.210209	-415.563561	330.083319	1356.901717	-81.399523	361.315534	959.546021	-412.319078	355.568034	972.692379	-93.740346	405.270892	902.708987	-395.689053	412.011237	928.968086	-112.405988	268.823000	870.113908	-393.677098	305.813648	859.093096	-90.723802	246.938153	963.049412	-258.621300	381.751244	637.755231	-442.901608	298.798780	631.089626	-427.245677	384.238122	537.071291	-448.834877	308.925255	527.755217	-428.817696	465.690959	675.812877	-92.457072	391.071293	646.870275	-97.837045	502.756037	584.775633	-107.969668	429.582895	555.208256	-115.296585	323.951844	440.745680	-441.624011	494.981641	449.793320	-129.522076	240.040955	380.884618	-434.722569	219.396910	458.627856	-413.874440	145.608105	353.049116	-409.076320	129.675200	427.384306	-384.006713	518.451280	342.547188	-155.574826	447.105992	356.159979	-119.943815	497.945444	247.284593	-176.210825	420.377881	257.540365	-140.838126	-16.919805	325.807388	-358.481752	399.897177	87.499780	-189.206036	5.071049	149.276937	-364.112342	-38.999154	207.835666	-401.511299	-43.373598	365.250164	-278.332957	580.137329	69.196527	-219.266246	519.686286	52.492864	-163.217730	346.557494	82.140625	-250.378758	360.941248	50.875479	-279.604813	344.010969	54.885875	-224.017425	-56.667650	339.287191	-251.932493	-74.895493	360.063210	-298.418133
42	0.205000	349.819575	1361.002900	-415.487260	348.865588	1353.776592	-80.733891	375.272901	956.334056	-412.403730	369.977872	970.189413	-93.581407	419.693397	899.827104	-395.662458	426.375504	926.285046	-112.087321	283.832381	866.223867	-392.832445	320.028564	856.812627	-90.414671	261.001781	960.236326	-258.481524	402.841709	636.079134	-442.579982	320.106767	627.282585	-427.347329	408.032343	535.621541	-448.517011	332.990148	524.327180	-428.897477	479.179724	673.015172	-91.915669	404.396898	644.410001	-97.217488	515.743377	581.701826	-107.187603	442.503866	552.532033	-114.525056	350.475895	438.544012	-441.207194	507.000756	446.604072	-128.938178	266.945164	378.604768	-434.715598	246.018366	456.335396	-413.838449	172.392765	350.563436	-409.654398	156.172246	424.882553	-384.564342	527.697558	338.704677	-155.463739	456.855474	354.389680	-119.470428	504.240109	244.116119	-176.492407	427.102843	256.557646	-140.548448	9.680196	323.049601	-360.199637	400.867675	87.274115	-189.454298	33.582034	146.788600	-366.498871	-10.645545	205.192496	-403.963694	-17.998427	361.855169	-279.921928	581.038977	67.033945	-219.967837	520.216398	51.382874	-163.731834	346.909890	82.495426	-250.519199	360.945735	50.900513	-279.714797	344.115847	55.295717	-224.037187	-31.314754	335.576699	-253.853651	-49.251174	356.545886	-300.438505
43	0.210000	363.699170	1358.116720	-415.388246	367.671739	1350.997170	-80.161864	389.167771	953.442534	-412.535127	384.354535	967.900259	-93.465075	434.069657	897.284859	-395.696370	440.705241	923.787842	-111.815120	298.800335	862.684180	-392.102078	334.158849	854.730293	-90.181423	275.058656	957.691479	-258.384881	423.939916	634.839326	-442.116755	341.486469	623.889739	-427.267669	431.874879	534.676402	-447.965434	357.160597	521.396298	-428.711119	492.332318	670.277131	-91.342793	417.359954	642.118408	-96.617489	528.270704	578.652669	-106.374302	454.933624	549.981416	-113.746174	377.110944	436.841015	-440.519720	518.405480	443.478590	-128.291325	294.071916	376.622987	-434.487235	272.678629	454.289187	-413.574938	199.450556	348.162671	-410.082168	182.760733	422.423164	-384.980596	536.382620	334.989952	-155.239989	466.055951	352.708200	-118.966606	510.057646	241.136157	-176.649360	433.364809	255.716132	-140.221921	36.607960	319.975172	-361.897898	401.582255	87.237379	-189.606006	62.839154	144.095533	-368.735627	18.361031	202.208435	-406.334004	7.551308	358.069179	-281.571350	581.657718	65.362082	-220.533041	520.538467	50.564819	-164.141195	347.022114	82.914157	-250.584994	360.790718	51.061959	-279.771326	344.059135	55.745700	-224.012963	-5.751101	331.467945	-255.826136	-23.395442	352.565334	-302.548483
44	0.215000	377.469860	1355.574647	-415.263696	386.480799	1348.590373	-79.690302	403.023335	950.903113	-412.709225	398.722958	965.836858	-93.388629	448.419616	895.114479	-395.786397	455.023893	921.489500	-111.591749	313.742187	859.532451	-391.499296	348.225042	852.857849	-90.027196	289.133505	955.437436	-258.328124	445.027640	634.054621	-441.514943	362.917885	620.938997	-427.006245	455.734702	534.253265	-447.181766	381.403629	518.988817	-428.257739	505.149170	667.610006	-90.755134	429.961093	640.012757	-96.046082	540.330384	575.641034	-105.550550	466.863069	547.574604	-112.972962	403.814519	435.655339	-439.567605	529.175815	440.434312	-127.595234	321.382695	374.954942	-434.037961	299.337303	452.499822	-413.088421	226.751566	345.858263	-410.352230	209.408272	420.013146	-385.252573	544.501947	331.421133	-154.914766	474.698905	351.122016	-118.443549	515.411691	238.353948	-176.689816	439.173172	255.013920	-139.868403	63.845869	316.588281	-363.556151	402.079102	87.378094	-189.667409	92.825514	141.221920	-370.796910	47.999324	198.900107	-408.596249	33.267343	353.891840	-283.262493	582.031846	64.143088	-220.967264	520.684180	50.007210	-164.451523	346.932356	83.391919	-250.583647	360.510935	51.349333	-279.780789	343.871708	56.230041	-223.952629	20.021730	326.960810	-257.828241	2.663242	348.118440	-304.723450
